<?xml version="1.0" encoding="UTF-8"?><svg id="uuid-3cbe96cc-d6ea-4f18-94d3-8803b0cab127" xmlns="http://www.w3.org/2000/svg" width="577.07" height="249.3" viewBox="0 0 577.07 249.3"><g id="uuid-85281365-04d7-4f33-9959-bd69b5b18821"><g id="uuid-ad0cafb9-b236-4cb0-a3bf-a8ed548594fc"><polyline points="64.61 108.81 64.61 221.1 42.02 221.1 42.02 108.81" fill="#dbb071"/><path d="M109.31,144.91l32.25,47.82-12.38,22.99-58.44-90.89h20.68c25.44,0,37.69-13.95,37.69-31.84s-11.7-31.09-32.52-31.09h-31.97v19.18h-22.59v-40.95h54.29c17.89,0,31.63,5.37,41.36,15.92,9.8,10.48,14.69,22.99,14.69,37.42,0,12.04-3.67,22.79-11.22,32.59-7.62,9.8-18.16,16.19-31.84,18.84Z" fill="#dbb071"/><polygon points="114.72 21.77 22.59 21.77 22.59 84.7 94.36 84.7 94.5 105.12 22.59 105.11 22.59 180.96 0 180.96 0 0 114.64 0 114.72 21.77" fill="#dbb071"/><polygon points="193.66 151.3 232.79 151.3 232.79 172.87 182.69 172.87 158.21 221.1 131.19 221.1 232.79 34.46 232.79 73.95 193.66 151.3" fill="#dbb071"/><path d="M370.19,221.1l-86.22-107.13-24.98,29.63v77.5h-22.53V34.46h22.53v79.26l63.67-73.59h26.94l-50.7,58.65,99.67,122.32h-28.38Z" fill="#dbb071"/><path d="M402.24,62.17h-66.87l18.98-22.04h136.64v22.04h-65.98v158.92h-22.77V62.17Z" fill="#dbb071"/><path d="M444.42,243.13V65.85h22.53v155.24h75.61v22.04h-98.14Z" fill="#dbb071"/><polygon points="42.03 40.15 42.03 61.92 41.97 40.15 42.03 40.15" fill="#dbb071"/><path d="M555.22,232.41h-3.87v-1.58h9.37v1.58h-3.87v11.41h-1.63v-11.41Z" fill="#dbb071"/><path d="M562.64,243.81v-12.99h.7l5.7,8.37,5.64-8.37h.72v12.99h-1.63v-8.98l-4.55,6.71h-.4l-4.55-6.71v8.98h-1.62Z" fill="#dbb071"/></g></g></svg>